<svg xmlns="http://www.w3.org/2000/svg" viewBox="0 0 512 512" role="img" aria-label="BuzzCalculus">
  <rect width="512" height="512" rx="96" fill="#e3b23d"/>
  <rect x="44" y="44" width="424" height="424" rx="68" fill="#fbfaf7" opacity="0.92"/>
  <path d="M278 96c-32 0-58 15-72 42-12 23-16 55-12 96h-54v54h61c3 27 5 51 4 72-1 28-9 42-24 42-13 0-26-9-38-27l-42 32c22 36 51 53 87 53 35 0 59-17 72-52 10-28 11-66 5-120h91v-54h-98c-5-42-2-70 8-84 6-8 14-12 25-12 17 0 31 8 44 25l40-36c-25-27-58-41-99-41z" fill="#20211f"/>
  <path d="M340 122l39-39 39 39-39 39-39-39zM356 373l28-28 28 28-28 28-28-28z" fill="#c94b43"/>
</svg>
